<svg xmlns="http://www.w3.org/2000/svg" viewBox="0 0 1200 630" width="1200" height="630">
  <defs>
    <linearGradient id="bg" x1="0%" y1="0%" x2="100%" y2="100%">
      <stop offset="0%" stop-color="#0f172a"/>
      <stop offset="100%" stop-color="#1e293b"/>
    </linearGradient>
    <linearGradient id="accent" x1="0%" y1="0%" x2="100%" y2="0%">
      <stop offset="0%" stop-color="#38bdf8"/>
      <stop offset="100%" stop-color="#818cf8"/>
    </linearGradient>
  </defs>
  <rect width="1200" height="630" fill="url(#bg)"/>
  <circle cx="950" cy="150" r="280" fill="#38bdf8" opacity="0.1"/>
  <circle cx="200" cy="500" r="220" fill="#818cf8" opacity="0.08"/>
  <path d="M0,500 Q300,450 600,520 T1200,480 L1200,630 L0,630 Z" fill="#1e3a8a" opacity="0.3"/>
  <rect x="100" y="120" width="180" height="40" rx="8" fill="url(#accent)"/>
  <text x="190" y="145" font-family="system-ui, sans-serif" font-size="16" font-weight="bold" fill="#ffffff" text-anchor="middle">CHÍNH TRỊ &amp; XÃ HỘI</text>
  <text x="100" y="240" font-family="system-ui, sans-serif" font-size="38" font-weight="800" fill="#ffffff">Vai Trò Của Người Dân Trong Đời Sống</text>
  <text x="100" y="295" font-family="system-ui, sans-serif" font-size="38" font-weight="800" fill="#38bdf8">Chính Trị Và Quản Lý Xã Hội</text>
  <text x="100" y="360" font-family="system-ui, sans-serif" font-size="20" fill="#94a3b8">Phát huy quyền làm chủ, tham gia giám sát và phản biện xã hội hiệu quả.</text>
  <g transform="translate(850, 220)">
    <rect x="0" y="0" width="220" height="220" rx="20" fill="#1e293b" stroke="#38bdf8" stroke-width="3" opacity="0.9"/>
    <path d="M110,40 L170,80 L170,160 L50,160 L50,80 Z" fill="none" stroke="#38bdf8" stroke-width="6"/>
    <line x1="80" y1="160" x2="80" y2="100" stroke="#38bdf8" stroke-width="6"/>
    <line x1="110" y1="160" x2="110" y2="100" stroke="#38bdf8" stroke-width="6"/>
    <line x1="140" y1="160" x2="140" y2="100" stroke="#38bdf8" stroke-width="6"/>
    <polygon points="110,30 40,80 180,80" fill="#818cf8"/>
  </g>
</svg>
